<svg xmlns="http://www.w3.org/2000/svg" xmlns:xlink="http://www.w3.org/1999/xlink" contentStyleType="text/css" data-diagram-type="CLASS" height="325px" preserveAspectRatio="none" style="width:200px;height:325px;background:#FFFFFF;" version="1.1" viewBox="0 0 200 325" width="200px" zoomAndPan="magnify"><?plantuml 1.2026.3?><defs/><g><!--class Role--><g class="entity" data-qualified-name="Role" data-source-line="1" id="ent0002"><rect fill="#F1F1F1" height="96.8906" rx="2.5" ry="2.5" style="stroke:#181818;stroke-width:0.5;" width="119.2354" x="36.85" y="213.48"/><ellipse cx="77.2478" cy="229.48" fill="#EB937F" rx="11" ry="11" style="stroke:#181818;stroke-width:1;"/><path d="M81.3571,235.48 L73.6384,235.48 L73.6384,223.0894 L81.3571,223.0894 L81.3571,225.2456 L76.0915,225.2456 L76.0915,227.9175 L80.8571,227.9175 L80.8571,230.0738 L76.0915,230.0738 L76.0915,233.3238 L81.3571,233.3238 L81.3571,235.48 Z " fill="#000000"/><text fill="#000000" font-family="sans-serif" font-size="14" lengthAdjust="spacing" textLength="30.7959" x="96.8917" y="234.3267">Role</text><line style="stroke:#181818;stroke-width:0.5;" x1="37.85" x2="155.0854" y1="245.48" y2="245.48"/><text fill="#000000" font-family="sans-serif" font-size="14" lengthAdjust="spacing" textLength="47.0381" x="42.85" y="262.4751">ADMIN</text><text fill="#000000" font-family="sans-serif" font-size="14" lengthAdjust="spacing" textLength="101.6299" x="42.85" y="278.772">TEAM_LEADER</text><text fill="#000000" font-family="sans-serif" font-size="14" lengthAdjust="spacing" textLength="107.2354" x="42.85" y="295.0689">TEAM_MEMBER</text><line style="stroke:#181818;stroke-width:0.5;" x1="37.85" x2="155.0854" y1="302.3706" y2="302.3706"/></g><!--class UserAccount--><g class="entity" data-qualified-name="UserAccount" data-source-line="7" id="ent0003"><rect fill="#F1F1F1" height="129.4844" rx="2.5" ry="2.5" style="stroke:#181818;stroke-width:0.5;" width="178.9336" x="7" y="7"/><ellipse cx="48.2129" cy="23" fill="#ADD1B2" rx="11" ry="11" style="stroke:#181818;stroke-width:1;"/><path d="M51.1817,28.6406 Q50.6036,28.9375 49.9629,29.0781 Q49.3223,29.2344 48.6192,29.2344 Q46.1192,29.2344 44.7911,27.5938 Q43.4786,25.9375 43.4786,22.8125 Q43.4786,19.6875 44.7911,18.0313 Q46.1192,16.375 48.6192,16.375 Q49.3223,16.375 49.9629,16.5313 Q50.6192,16.6875 51.1817,16.9844 L51.1817,19.7031 Q50.5567,19.125 49.9629,18.8594 Q49.3692,18.5781 48.7442,18.5781 Q47.4004,18.5781 46.7129,19.6563 Q46.0254,20.7188 46.0254,22.8125 Q46.0254,24.9063 46.7129,25.9844 Q47.4004,27.0469 48.7442,27.0469 Q49.3692,27.0469 49.9629,26.7813 Q50.5567,26.5 51.1817,25.9219 L51.1817,28.6406 Z " fill="#000000"/><text fill="#000000" font-family="sans-serif" font-size="14" lengthAdjust="spacing" textLength="88.6826" x="68.038" y="27.8467">UserAccount</text><line style="stroke:#181818;stroke-width:0.5;" x1="8" x2="184.9336" y1="39" y2="39"/><g data-visibility-modifier="PUBLIC_FIELD"><ellipse cx="18" cy="52.6484" fill="none" rx="3" ry="3" style="stroke:#038048;stroke-width:1;"/></g><text fill="#000000" font-family="sans-serif" font-size="14" lengthAdjust="spacing" textLength="63.7246" x="27" y="55.9951">id: String</text><g data-visibility-modifier="PUBLIC_FIELD"><ellipse cx="18" cy="68.9453" fill="none" rx="3" ry="3" style="stroke:#038048;stroke-width:1;"/></g><text fill="#000000" font-family="sans-serif" font-size="14" lengthAdjust="spacing" textLength="121.1875" x="27" y="72.292">username: String</text><g data-visibility-modifier="PUBLIC_FIELD"><ellipse cx="18" cy="85.2422" fill="none" rx="3" ry="3" style="stroke:#038048;stroke-width:1;"/></g><text fill="#000000" font-family="sans-serif" font-size="14" lengthAdjust="spacing" textLength="152.9336" x="27" y="88.5889">passwordHash: String</text><g data-visibility-modifier="PUBLIC_FIELD"><ellipse cx="18" cy="101.5391" fill="none" rx="3" ry="3" style="stroke:#038048;stroke-width:1;"/></g><text fill="#000000" font-family="sans-serif" font-size="14" lengthAdjust="spacing" textLength="120.5313" x="27" y="104.8857">roles: Set&lt;Role&gt;</text><g data-visibility-modifier="PUBLIC_FIELD"><ellipse cx="18" cy="117.8359" fill="none" rx="3" ry="3" style="stroke:#038048;stroke-width:1;"/></g><text fill="#000000" font-family="sans-serif" font-size="14" lengthAdjust="spacing" textLength="94.5" x="27" y="121.1826">userId: String</text><line style="stroke:#181818;stroke-width:0.5;" x1="8" x2="184.9336" y1="128.4844" y2="128.4844"/></g><!--link UserAccount to Role--><g class="link" data-entity-1="ent0003" data-entity-2="ent0002" data-link-type="dependency" data-source-line="15" id="lnk4"><path codeLine="15" d="M96.47,136.97 C96.47,161.89 96.47,183.92 96.47,207.02" fill="none" id="UserAccount-to-Role" style="stroke:#181818;stroke-width:1;"/><polygon fill="#181818" points="96.47,213.02,100.47,204.02,96.47,208.02,92.47,204.02,96.47,213.02" style="stroke:#181818;stroke-width:1;"/><polygon fill="#000000" points="101.47,180.0464,104.4089,171.0013,98.5311,171.0013,101.47,180.0464" style="stroke:#000000;stroke-width:1;"/><text fill="#000000" font-family="sans-serif" font-size="13" lengthAdjust="spacing" textLength="31.6812" x="110.47" y="179.5469">roles</text><text fill="#000000" font-family="sans-serif" font-size="13" lengthAdjust="spacing" textLength="8.271" x="88.0718" y="156.5438">1</text><text fill="#000000" font-family="sans-serif" font-size="13" lengthAdjust="spacing" textLength="6.5" x="90.1008" y="202.5164">*</text></g><?plantuml-src IyqhpLK8oiz9LQZcKb1mTF7rz0FI8QwEll4-heukha4mdg-hhnEGLyl5bPoJM5oi45gSMkIOd9nVcbS2rggTcMAb45nIb9cN3kAL0gNp4dDJaSKAWFhAyujIF1ABCv35Yu3M5mC5KajiG2wnW-dtH9W8j1RPGYL39GLTNJi59IqbYEEj5C26ADW10000?></g></svg>