<svg xmlns="http://www.w3.org/2000/svg" xmlns:xlink="http://www.w3.org/1999/xlink" contentStyleType="text/css" data-diagram-type="CLASS" height="568px" preserveAspectRatio="none" style="width:426px;height:568px;background:#FFFFFF;" version="1.1" viewBox="0 0 426 568" width="426px" zoomAndPan="magnify"><?plantuml 1.2026.3?><defs/><g><!--class ActivityFetcher--><g class="entity" data-qualified-name="ActivityFetcher" data-source-line="1" id="ent0002"><rect fill="#F1F1F1" height="121.4531" rx="2.5" ry="2.5" style="stroke:#181818;stroke-width:0.5;" width="335.9551" x="42.13" y="322.72"/><ellipse cx="153.0089" cy="342.8528" fill="#B4A7E5" rx="11" ry="11" style="stroke:#181818;stroke-width:1;"/><path d="M148.9308,338.6184 L148.9308,336.4622 L156.3214,336.4622 L156.3214,338.6184 L153.8527,338.6184 L153.8527,346.6966 L156.3214,346.6966 L156.3214,348.8528 L148.9308,348.8528 L148.9308,346.6966 L151.3995,346.6966 L151.3995,338.6184 L148.9308,338.6184 Z " fill="#000000"/><text fill="#000000" font-family="sans-serif" font-size="12" font-style="italic" lengthAdjust="spacing" textLength="66.0996" x="193.3077" y="338.8587">&#171;Strategy&#187;</text><text fill="#000000" font-family="sans-serif" font-size="14" font-style="italic" lengthAdjust="spacing" textLength="105.6973" x="173.5089" y="354.6839">ActivityFetcher</text><line style="stroke:#181818;stroke-width:0.5;" x1="43.13" x2="377.0851" y1="362.9856" y2="362.9856"/><line style="stroke:#181818;stroke-width:0.5;" x1="43.13" x2="377.0851" y1="370.9856" y2="370.9856"/><g data-visibility-modifier="PUBLIC_METHOD"><ellipse cx="53.13" cy="384.6341" fill="#84BE84" rx="3" ry="3" style="stroke:#038048;stroke-width:1;"/></g><text fill="#000000" font-family="sans-serif" font-size="14" lengthAdjust="spacing" textLength="309.9551" x="62.13" y="387.9807">getSupportedPlatforms(): List&lt;GitPlatform&gt;</text><g data-visibility-modifier="PUBLIC_METHOD"><ellipse cx="53.13" cy="400.9309" fill="#84BE84" rx="3" ry="3" style="stroke:#038048;stroke-width:1;"/></g><text fill="#000000" font-family="sans-serif" font-size="14" lengthAdjust="spacing" textLength="292.4277" x="62.13" y="404.2776">getSupportedTypes(): List&lt;ActivityType&gt;</text><g data-visibility-modifier="PUBLIC_METHOD"><ellipse cx="53.13" cy="417.2278" fill="#84BE84" rx="3" ry="3" style="stroke:#038048;stroke-width:1;"/></g><text fill="#000000" font-family="sans-serif" font-size="14" lengthAdjust="spacing" textLength="114.1602" x="62.13" y="420.5745">fetchForUser(...)</text><g data-visibility-modifier="PUBLIC_METHOD"><ellipse cx="53.13" cy="433.5247" fill="#84BE84" rx="3" ry="3" style="stroke:#038048;stroke-width:1;"/></g><text fill="#000000" font-family="sans-serif" font-size="14" lengthAdjust="spacing" textLength="135.2012" x="62.13" y="436.8714">searchActivities(...)</text></g><!--class FetcherFactory--><g class="entity" data-qualified-name="FetcherFactory" data-source-line="8" id="ent0003"><rect fill="#F1F1F1" height="72.5625" rx="2.5" ry="2.5" style="stroke:#181818;stroke-width:0.5;" width="284.5967" x="67.81" y="173.15"/><ellipse cx="153.0986" cy="193.2828" fill="#B4A7E5" rx="11" ry="11" style="stroke:#181818;stroke-width:1;"/><path d="M149.0204,189.0484 L149.0204,186.8922 L156.4111,186.8922 L156.4111,189.0484 L153.9423,189.0484 L153.9423,197.1266 L156.4111,197.1266 L156.4111,199.2828 L149.0204,199.2828 L149.0204,197.1266 L151.4892,197.1266 L151.4892,189.0484 L149.0204,189.0484 Z " fill="#000000"/><text fill="#000000" font-family="sans-serif" font-size="12" font-style="italic" lengthAdjust="spacing" textLength="108.4395" x="172.1386" y="189.2887">&#171;Factory Method&#187;</text><text fill="#000000" font-family="sans-serif" font-size="14" font-style="italic" lengthAdjust="spacing" textLength="105.5195" x="173.5986" y="205.1139">FetcherFactory</text><line style="stroke:#181818;stroke-width:0.5;" x1="68.81" x2="351.4067" y1="213.4156" y2="213.4156"/><line style="stroke:#181818;stroke-width:0.5;" x1="68.81" x2="351.4067" y1="221.4156" y2="221.4156"/><g data-visibility-modifier="PUBLIC_METHOD"><ellipse cx="78.81" cy="235.0641" fill="#84BE84" rx="3" ry="3" style="stroke:#038048;stroke-width:1;"/></g><text fill="#000000" font-family="sans-serif" font-size="14" lengthAdjust="spacing" textLength="258.5967" x="87.81" y="238.4107">build(apiKey: String): ActivityFetcher</text></g><!--class ActivityFetcherRegistry--><g class="entity" data-qualified-name="ActivityFetcherRegistry" data-source-line="12" id="ent0004"><rect fill="#F1F1F1" height="105.1563" rx="2.5" ry="2.5" style="stroke:#181818;stroke-width:0.5;" width="342.9209" x="38.65" y="7"/><ellipse cx="124.0411" cy="27.1328" fill="#ADD1B2" rx="11" ry="11" style="stroke:#181818;stroke-width:1;"/><path d="M127.0099,32.7734 Q126.4317,33.0703 125.7911,33.2109 Q125.1505,33.3672 124.4474,33.3672 Q121.9474,33.3672 120.6192,31.7266 Q119.3067,30.0703 119.3067,26.9453 Q119.3067,23.8203 120.6192,22.1641 Q121.9474,20.5078 124.4474,20.5078 Q125.1505,20.5078 125.7911,20.6641 Q126.4474,20.8203 127.0099,21.1172 L127.0099,23.8359 Q126.3849,23.2578 125.7911,22.9922 Q125.1974,22.7109 124.5724,22.7109 Q123.2286,22.7109 122.5411,23.7891 Q121.8536,24.8516 121.8536,26.9453 Q121.8536,29.0391 122.5411,30.1172 Q123.2286,31.1797 124.5724,31.1797 Q125.1974,31.1797 125.7911,30.9141 Q126.3849,30.6328 127.0099,30.0547 L127.0099,32.7734 Z " fill="#000000"/><text fill="#000000" font-family="sans-serif" font-size="12" font-style="italic" lengthAdjust="spacing" textLength="64.3477" x="194.1866" y="23.1387">&#171;Registry&#187;</text><text fill="#000000" font-family="sans-serif" font-size="14" lengthAdjust="spacing" textLength="163.6387" x="144.5411" y="38.9639">ActivityFetcherRegistry</text><line style="stroke:#181818;stroke-width:0.5;" x1="39.65" x2="380.5709" y1="47.2656" y2="47.2656"/><g data-visibility-modifier="PRIVATE_FIELD"><rect fill="none" height="6" style="stroke:#C82930;stroke-width:1;" width="6" x="46.65" y="57.9141"/></g><text fill="#000000" font-family="sans-serif" font-size="14" lengthAdjust="spacing" textLength="316.9209" x="58.65" y="64.2607">factories: Map&lt;GitPlatform, FetcherFactory&gt;</text><line style="stroke:#181818;stroke-width:0.5;" x1="39.65" x2="380.5709" y1="71.5625" y2="71.5625"/><g data-visibility-modifier="PUBLIC_METHOD"><ellipse cx="49.65" cy="85.2109" fill="#84BE84" rx="3" ry="3" style="stroke:#038048;stroke-width:1;"/></g><text fill="#000000" font-family="sans-serif" font-size="14" lengthAdjust="spacing" textLength="183.1553" x="58.65" y="88.5576">register(platform, factory)</text><g data-visibility-modifier="PUBLIC_METHOD"><ellipse cx="49.65" cy="101.5078" fill="#84BE84" rx="3" ry="3" style="stroke:#038048;stroke-width:1;"/></g><text fill="#000000" font-family="sans-serif" font-size="14" lengthAdjust="spacing" textLength="276.2813" x="58.65" y="104.8545">build(platform, apiKey): ActivityFetcher</text></g><!--class GitHubActivityFetcher--><g class="entity" data-qualified-name="GitHubActivityFetcher" data-source-line="18" id="ent0005"><rect fill="#F1F1F1" height="48" rx="2.5" ry="2.5" style="stroke:#181818;stroke-width:0.5;" width="186.2119" x="7" y="505.17"/><ellipse cx="22" cy="521.17" fill="#ADD1B2" rx="11" ry="11" style="stroke:#181818;stroke-width:1;"/><path d="M24.9688,526.8106 Q24.3906,527.1075 23.75,527.2481 Q23.1094,527.4044 22.4063,527.4044 Q19.9063,527.4044 18.5781,525.7638 Q17.2656,524.1075 17.2656,520.9825 Q17.2656,517.8575 18.5781,516.2013 Q19.9063,514.545 22.4063,514.545 Q23.1094,514.545 23.75,514.7013 Q24.4063,514.8575 24.9688,515.1544 L24.9688,517.8731 Q24.3438,517.295 23.75,517.0294 Q23.1563,516.7481 22.5313,516.7481 Q21.1875,516.7481 20.5,517.8263 Q19.8125,518.8888 19.8125,520.9825 Q19.8125,523.0763 20.5,524.1544 Q21.1875,525.2169 22.5313,525.2169 Q23.1563,525.2169 23.75,524.9513 Q24.3438,524.67 24.9688,524.0919 L24.9688,526.8106 Z " fill="#000000"/><text fill="#000000" font-family="sans-serif" font-size="14" lengthAdjust="spacing" textLength="154.2119" x="36" y="526.0167">GitHubActivityFetcher</text><line style="stroke:#181818;stroke-width:0.5;" x1="8" x2="192.2119" y1="537.17" y2="537.17"/><line style="stroke:#181818;stroke-width:0.5;" x1="8" x2="192.2119" y1="545.17" y2="545.17"/></g><!--class GitLabActivityFetcher--><g class="entity" data-qualified-name="GitLabActivityFetcher" data-source-line="19" id="ent0007"><rect fill="#F1F1F1" height="48" rx="2.5" ry="2.5" style="stroke:#181818;stroke-width:0.5;" width="183.1904" x="228.51" y="505.17"/><ellipse cx="243.51" cy="521.17" fill="#ADD1B2" rx="11" ry="11" style="stroke:#181818;stroke-width:1;"/><path d="M246.4788,526.8106 Q245.9006,527.1075 245.26,527.2481 Q244.6194,527.4044 243.9163,527.4044 Q241.4163,527.4044 240.0881,525.7638 Q238.7756,524.1075 238.7756,520.9825 Q238.7756,517.8575 240.0881,516.2013 Q241.4163,514.545 243.9163,514.545 Q244.6194,514.545 245.26,514.7013 Q245.9163,514.8575 246.4788,515.1544 L246.4788,517.8731 Q245.8538,517.295 245.26,517.0294 Q244.6663,516.7481 244.0413,516.7481 Q242.6975,516.7481 242.01,517.8263 Q241.3225,518.8888 241.3225,520.9825 Q241.3225,523.0763 242.01,524.1544 Q242.6975,525.2169 244.0413,525.2169 Q244.6663,525.2169 245.26,524.9513 Q245.8538,524.67 246.4788,524.0919 L246.4788,526.8106 Z " fill="#000000"/><text fill="#000000" font-family="sans-serif" font-size="14" lengthAdjust="spacing" textLength="151.1904" x="257.51" y="526.0167">GitLabActivityFetcher</text><line style="stroke:#181818;stroke-width:0.5;" x1="229.51" x2="410.7004" y1="537.17" y2="537.17"/><line style="stroke:#181818;stroke-width:0.5;" x1="229.51" x2="410.7004" y1="545.17" y2="545.17"/></g><!--reverse link ActivityFetcher to GitHubActivityFetcher--><g class="link" data-entity-1="ent0002" data-entity-2="ent0005" data-link-type="extension" data-source-line="18" id="lnk6"><path d="M153.1494,458.8535 C136.8994,480.0835 130.52,488.43 118,504.79" fill="none" id="ActivityFetcher-backto-GitHubActivityFetcher" style="stroke:#181818;stroke-width:1;stroke-dasharray:7,7;"/><polygon fill="none" points="164.09,444.56,148.3849,455.2066,157.9139,462.5003,164.09,444.56" style="stroke:#181818;stroke-width:1;"/></g><!--reverse link ActivityFetcher to GitLabActivityFetcher--><g class="link" data-entity-1="ent0002" data-entity-2="ent0007" data-link-type="extension" data-source-line="19" id="lnk8"><path d="M267.0606,458.8535 C283.3106,480.0835 289.69,488.43 302.21,504.79" fill="none" id="ActivityFetcher-backto-GitLabActivityFetcher" style="stroke:#181818;stroke-width:1;stroke-dasharray:7,7;"/><polygon fill="none" points="256.12,444.56,262.2961,462.5003,271.8251,455.2066,256.12,444.56" style="stroke:#181818;stroke-width:1;"/></g><!--reverse link ActivityFetcherRegistry to FetcherFactory--><g class="link" data-entity-1="ent0004" data-entity-2="ent0003" data-link-type="aggregation" data-source-line="21" id="lnk9"><path codeLine="21" d="M210.11,124.29 C210.11,144.28 210.11,154.65 210.11,172.78" fill="none" id="ActivityFetcherRegistry-backto-FetcherFactory" style="stroke:#181818;stroke-width:1;"/><polygon fill="none" points="210.11,112.29,206.11,118.29,210.11,124.29,214.11,118.29,210.11,112.29" style="stroke:#181818;stroke-width:1;"/><text fill="#000000" font-family="sans-serif" font-size="13" lengthAdjust="spacing" textLength="8.271" x="201.6148" y="132.08">1</text><text fill="#000000" font-family="sans-serif" font-size="13" lengthAdjust="spacing" textLength="6.5" x="203.6205" y="161.9943">*</text></g><!--link FetcherFactory to ActivityFetcher--><g class="link" data-entity-1="ent0003" data-entity-2="ent0002" data-link-type="dependency" data-source-line="22" id="lnk10"><path codeLine="22" d="M210.11,246.08 C210.11,268.12 210.11,290.97 210.11,316.46" fill="none" id="FetcherFactory-to-ActivityFetcher" style="stroke:#181818;stroke-width:1;stroke-dasharray:7,7;"/><polygon fill="#181818" points="210.11,322.46,214.11,313.46,210.11,317.46,206.11,313.46,210.11,322.46" style="stroke:#181818;stroke-width:1;"/><polygon fill="#000000" points="215.11,289.2864,218.0489,280.2413,212.1711,280.2413,215.11,289.2864" style="stroke:#000000;stroke-width:1;"/><text fill="#000000" font-family="sans-serif" font-size="13" lengthAdjust="spacing" textLength="48.3247" x="224.11" y="288.7869">creates</text></g><?plantuml-src bPB1QeGm48RlFiNWITigz2gBq8ijT1TAjts0R1mre2OaOo6KldjZLjUIfONUXfb_Phu_6J4IwePnX0TEuaEGhP1uXnfskoDfHjZQieJF2E2sHJfEIabDMB_qZ1gf1vEa1Uo5eTsZe3LPXketgt1Jhflch9SsyyfAwdU3EidpF9sJ1fdctQ8LhjqNlg98N90Nr8fnajewuZKw87MoNhbFa-ZhX2dnZBO0vqgChMC93C-ZUS-C2Gkls3fgFtyDbybPu_Svk08EJFryWhi0pllKljrvL1VLUO9DDywjTYR-YzGjV9fEuS-9GVKuu4XNLhQsFVjFM_JRayJtCSWiW_Wc3Wn7mUVaUNbrOWLmZUx439JV?></g></svg>