<svg xmlns="http://www.w3.org/2000/svg" xmlns:xlink="http://www.w3.org/1999/xlink" contentStyleType="text/css" data-diagram-type="CLASS" height="273px" preserveAspectRatio="none" style="width:792px;height:273px;background:#FFFFFF;" version="1.1" viewBox="0 0 792 273" width="792px" zoomAndPan="magnify"><?plantuml 1.2026.3?><defs/><g><!--class RepoDiscoverer--><g class="entity" data-qualified-name="RepoDiscoverer" data-source-line="1" id="ent0002"><rect fill="#F1F1F1" height="72.5625" rx="2.5" ry="2.5" style="stroke:#181818;stroke-width:0.5;" width="403.6924" x="374.17" y="31.44"/><ellipse cx="516.2447" cy="51.5728" fill="#B4A7E5" rx="11" ry="11" style="stroke:#181818;stroke-width:1;"/><path d="M512.1666,47.3384 L512.1666,45.1822 L519.5572,45.1822 L519.5572,47.3384 L517.0885,47.3384 L517.0885,55.4166 L519.5572,55.4166 L519.5572,57.5728 L512.1666,57.5728 L512.1666,55.4166 L514.6353,55.4166 L514.6353,47.3384 L512.1666,47.3384 Z " fill="#000000"/><text fill="#000000" font-family="sans-serif" font-size="12" font-style="italic" lengthAdjust="spacing" textLength="66.0996" x="559.2164" y="47.5787">&#171;Strategy&#187;</text><text fill="#000000" font-family="sans-serif" font-size="14" font-style="italic" lengthAdjust="spacing" textLength="111.043" x="536.7447" y="63.4039">RepoDiscoverer</text><line style="stroke:#181818;stroke-width:0.5;" x1="375.17" x2="776.8624" y1="71.7056" y2="71.7056"/><line style="stroke:#181818;stroke-width:0.5;" x1="375.17" x2="776.8624" y1="79.7056" y2="79.7056"/><g data-visibility-modifier="PUBLIC_METHOD"><ellipse cx="385.17" cy="93.3541" fill="#84BE84" rx="3" ry="3" style="stroke:#038048;stroke-width:1;"/></g><text fill="#000000" font-family="sans-serif" font-size="14" lengthAdjust="spacing" textLength="377.6924" x="394.17" y="96.7007">discoverUserRepos(ctx, username): List&lt;Repository&gt;</text></g><!--class ActivityFetcher--><g class="entity" data-qualified-name="ActivityFetcher" data-source-line="5" id="ent0003"><rect fill="#F1F1F1" height="121.4531" rx="2.5" ry="2.5" style="stroke:#181818;stroke-width:0.5;" width="199.3389" x="65.35" y="7"/><ellipse cx="108.0887" cy="27.1328" fill="#B4A7E5" rx="11" ry="11" style="stroke:#181818;stroke-width:1;"/><path d="M104.0106,22.8984 L104.0106,20.7422 L111.4012,20.7422 L111.4012,22.8984 L108.9325,22.8984 L108.9325,30.9766 L111.4012,30.9766 L111.4012,33.1328 L104.0106,33.1328 L104.0106,30.9766 L106.4793,30.9766 L106.4793,22.8984 L104.0106,22.8984 Z " fill="#000000"/><text fill="#000000" font-family="sans-serif" font-size="12" font-style="italic" lengthAdjust="spacing" textLength="66.0996" x="148.0517" y="23.1387">&#171;Strategy&#187;</text><text fill="#000000" font-family="sans-serif" font-size="14" font-style="italic" lengthAdjust="spacing" textLength="105.6973" x="128.2529" y="38.9639">ActivityFetcher</text><line style="stroke:#181818;stroke-width:0.5;" x1="66.35" x2="263.6889" y1="47.2656" y2="47.2656"/><line style="stroke:#181818;stroke-width:0.5;" x1="66.35" x2="263.6889" y1="55.2656" y2="55.2656"/><g data-visibility-modifier="PUBLIC_METHOD"><ellipse cx="76.35" cy="68.9141" fill="#84BE84" rx="3" ry="3" style="stroke:#038048;stroke-width:1;"/></g><text fill="#000000" font-family="sans-serif" font-size="14" lengthAdjust="spacing" textLength="173.3389" x="85.35" y="72.2607">getSupportedPlatforms()</text><g data-visibility-modifier="PUBLIC_METHOD"><ellipse cx="76.35" cy="85.2109" fill="#84BE84" rx="3" ry="3" style="stroke:#038048;stroke-width:1;"/></g><text fill="#000000" font-family="sans-serif" font-size="14" lengthAdjust="spacing" textLength="148.3877" x="85.35" y="88.5576">getSupportedTypes()</text><g data-visibility-modifier="PUBLIC_METHOD"><ellipse cx="76.35" cy="101.5078" fill="#84BE84" rx="3" ry="3" style="stroke:#038048;stroke-width:1;"/></g><text fill="#000000" font-family="sans-serif" font-size="14" lengthAdjust="spacing" textLength="114.1602" x="85.35" y="104.8545">fetchForUser(...)</text><g data-visibility-modifier="PUBLIC_METHOD"><ellipse cx="76.35" cy="117.8047" fill="#84BE84" rx="3" ry="3" style="stroke:#038048;stroke-width:1;"/></g><text fill="#000000" font-family="sans-serif" font-size="14" lengthAdjust="spacing" textLength="135.2012" x="85.35" y="121.1514">searchActivities(...)</text></g><!--class GitHubActivityFetcher--><g class="entity" data-qualified-name="GitHubActivityFetcher" data-source-line="12" id="ent0004"><rect fill="#F1F1F1" height="48" rx="2.5" ry="2.5" style="stroke:#181818;stroke-width:0.5;" width="186.2119" x="482.91" y="199.71"/><ellipse cx="497.91" cy="215.71" fill="#ADD1B2" rx="11" ry="11" style="stroke:#181818;stroke-width:1;"/><path d="M500.8788,221.3506 Q500.3006,221.6475 499.66,221.7881 Q499.0194,221.9444 498.3163,221.9444 Q495.8163,221.9444 494.4881,220.3037 Q493.1756,218.6475 493.1756,215.5225 Q493.1756,212.3975 494.4881,210.7412 Q495.8163,209.085 498.3163,209.085 Q499.0194,209.085 499.66,209.2412 Q500.3163,209.3975 500.8788,209.6944 L500.8788,212.4131 Q500.2538,211.835 499.66,211.5694 Q499.0663,211.2881 498.4413,211.2881 Q497.0975,211.2881 496.41,212.3662 Q495.7225,213.4287 495.7225,215.5225 Q495.7225,217.6162 496.41,218.6944 Q497.0975,219.7569 498.4413,219.7569 Q499.0663,219.7569 499.66,219.4912 Q500.2538,219.21 500.8788,218.6319 L500.8788,221.3506 Z " fill="#000000"/><text fill="#000000" font-family="sans-serif" font-size="14" lengthAdjust="spacing" textLength="154.2119" x="511.91" y="220.5567">GitHubActivityFetcher</text><line style="stroke:#181818;stroke-width:0.5;" x1="483.91" x2="668.1219" y1="231.71" y2="231.71"/><line style="stroke:#181818;stroke-width:0.5;" x1="483.91" x2="668.1219" y1="239.71" y2="239.71"/></g><!--class ManualOnlyFetcher--><g class="entity" data-qualified-name="ManualOnlyFetcher" data-source-line="13" id="ent0007"><rect fill="#F1F1F1" height="48" rx="2.5" ry="2.5" style="stroke:#181818;stroke-width:0.5;" width="168.0352" x="7" y="199.71"/><ellipse cx="22" cy="215.71" fill="#ADD1B2" rx="11" ry="11" style="stroke:#181818;stroke-width:1;"/><path d="M24.9688,221.3506 Q24.3906,221.6475 23.75,221.7881 Q23.1094,221.9444 22.4063,221.9444 Q19.9063,221.9444 18.5781,220.3037 Q17.2656,218.6475 17.2656,215.5225 Q17.2656,212.3975 18.5781,210.7412 Q19.9063,209.085 22.4063,209.085 Q23.1094,209.085 23.75,209.2412 Q24.4063,209.3975 24.9688,209.6944 L24.9688,212.4131 Q24.3438,211.835 23.75,211.5694 Q23.1563,211.2881 22.5313,211.2881 Q21.1875,211.2881 20.5,212.3662 Q19.8125,213.4287 19.8125,215.5225 Q19.8125,217.6162 20.5,218.6944 Q21.1875,219.7569 22.5313,219.7569 Q23.1563,219.7569 23.75,219.4912 Q24.3438,219.21 24.9688,218.6319 L24.9688,221.3506 Z " fill="#000000"/><text fill="#000000" font-family="sans-serif" font-size="14" lengthAdjust="spacing" textLength="136.0352" x="36" y="220.5567">ManualOnlyFetcher</text><line style="stroke:#181818;stroke-width:0.5;" x1="8" x2="174.0352" y1="231.71" y2="231.71"/><line style="stroke:#181818;stroke-width:0.5;" x1="8" x2="174.0352" y1="239.71" y2="239.71"/></g><g class="entity" data-qualified-name="GMN9" data-source-line="16" id="ent0010"><path d="M210.01,188.45 L210.01,219.71 L175.15,223.71 L210.01,227.71 L210.01,258.9813 A0,0 0 0 0 210.01,258.9813 L448.0237,258.9813 A0,0 0 0 0 448.0237,258.9813 L448.0237,198.45 L438.0237,188.45 L210.01,188.45 A0,0 0 0 0 210.01,188.45" fill="#FEFFDD" style="stroke:#181818;stroke-width:0.5;"/><path d="M438.0237,188.45 L438.0237,198.45 L448.0237,198.45 L438.0237,188.45" fill="#FEFFDD" style="stroke:#181818;stroke-width:0.5;"/><text fill="#000000" font-family="sans-serif" font-size="13" lengthAdjust="spacing" textLength="191.4707" x="216.01" y="205.5169">A platform that only supports</text><text fill="#000000" font-family="sans-serif" font-size="13" lengthAdjust="spacing" textLength="217.0137" x="216.01" y="220.6497">manually configured repos would</text><text fill="#000000" font-family="sans-serif" font-size="13" lengthAdjust="spacing" textLength="198.1357" x="216.01" y="235.7825">implement ActivityFetcher but</text><text fill="#000000" font-family="sans-serif" font-size="13" lengthAdjust="spacing" textLength="139.2739" x="216.01" y="250.9153">NOT RepoDiscoverer.</text></g><!--reverse link ActivityFetcher to GitHubActivityFetcher--><g class="link" data-entity-1="ent0003" data-entity-2="ent0004" data-link-type="extension" data-source-line="12" id="lnk5"><path d="M281.8862,112.5143 C359.3562,141.5343 447.39,174.52 513.38,199.25" fill="none" id="ActivityFetcher-backto-GitHubActivityFetcher" style="stroke:#181818;stroke-width:1;stroke-dasharray:7,7;"/><polygon fill="none" points="265.03,106.2,279.7814,118.133,283.9909,106.8955,265.03,106.2" style="stroke:#181818;stroke-width:1;"/></g><!--reverse link RepoDiscoverer to GitHubActivityFetcher--><g class="link" data-entity-1="ent0002" data-entity-2="ent0004" data-link-type="extension" data-source-line="12" id="lnk6"><path d="M576.02,122.44 C576.02,151.76 576.02,174.42 576.02,199.62" fill="none" id="RepoDiscoverer-backto-GitHubActivityFetcher" style="stroke:#181818;stroke-width:1;stroke-dasharray:7,7;"/><polygon fill="none" points="576.02,104.44,570.02,122.44,582.02,122.44,576.02,104.44" style="stroke:#181818;stroke-width:1;"/></g><!--reverse link ActivityFetcher to ManualOnlyFetcher--><g class="link" data-entity-1="ent0003" data-entity-2="ent0007" data-link-type="extension" data-source-line="13" id="lnk8"><path d="M128.4038,144.924 C116.5538,169.584 111.32,180.47 102.31,199.22" fill="none" id="ActivityFetcher-backto-ManualOnlyFetcher" style="stroke:#181818;stroke-width:1;stroke-dasharray:7,7;"/><polygon fill="none" points="136.2,128.7,122.9958,142.3253,133.8118,147.5228,136.2,128.7" style="stroke:#181818;stroke-width:1;"/></g><?plantuml-src ZP31JiCm38RlUGeVDp7r0L1LQH8Q70P3R3n0bhgjfJI976TG8TwTj5GxT1musjzl_xzDJf0RRH3UCFW7YiPVa96XB8_2Mh0TgWg-5C1TFSFtY3oAuyh8vmPIBftkSNqFUufIJeZ4yr2fRwNeQh0rGXUIOOTYkZyTMfHZ2i6pOFrgjJIU-xXQBz5f23Ytct7Npa-PLaLHJCs8caqtsr6MJY1dCLR728yaJ-cyJ4DziDYZaxWCkbcyPbxph5tIzk3iFrOevRmWCBMTW6zkPtFiBOJvP91EPrcc47zlZfdtqqpk6UyQQXDZ3Jp-6ZvyidLMNFrlNdrEaldBuRGufL3eQXYp_G00?></g></svg>