<svg xmlns="http://www.w3.org/2000/svg" xmlns:xlink="http://www.w3.org/1999/xlink" contentStyleType="text/css" data-diagram-type="CLASS" height="268px" preserveAspectRatio="none" style="width:581px;height:268px;background:#FFFFFF;" version="1.1" viewBox="0 0 581 268" width="581px" zoomAndPan="magnify"><?plantuml 1.2026.3?><defs/><g><!--class ActivityType--><g class="entity" data-qualified-name="ActivityType" data-source-line="1" id="ent0002"><rect fill="#F1F1F1" height="88.8594" rx="2.5" ry="2.5" style="stroke:#181818;stroke-width:0.5;" width="167.9619" x="7" y="11.01"/><ellipse cx="44.0601" cy="31.1428" fill="#ADD1B2" rx="11" ry="11" style="stroke:#181818;stroke-width:1;"/><path d="M47.0289,36.7834 Q46.4507,37.0803 45.8101,37.2209 Q45.1695,37.3772 44.4664,37.3772 Q41.9664,37.3772 40.6382,35.7366 Q39.3257,34.0803 39.3257,30.9553 Q39.3257,27.8303 40.6382,26.1741 Q41.9664,24.5178 44.4664,24.5178 Q45.1695,24.5178 45.8101,24.6741 Q46.4664,24.8303 47.0289,25.1272 L47.0289,27.8459 Q46.4039,27.2678 45.8101,27.0022 Q45.2164,26.7209 44.5914,26.7209 Q43.2476,26.7209 42.5601,27.7991 Q41.8726,28.8616 41.8726,30.9553 Q41.8726,33.0491 42.5601,34.1272 Q43.2476,35.1897 44.5914,35.1897 Q45.2164,35.1897 45.8101,34.9241 Q46.4039,34.6428 47.0289,34.0647 L47.0289,36.7834 Z " fill="#000000"/><text fill="#000000" font-family="sans-serif" font-size="12" font-style="italic" lengthAdjust="spacing" textLength="88.2539" x="62.3051" y="27.1487">&#171;value object&#187;</text><text fill="#000000" font-family="sans-serif" font-size="14" lengthAdjust="spacing" textLength="86.9395" x="62.9624" y="42.9739">ActivityType</text><line style="stroke:#181818;stroke-width:0.5;" x1="8" x2="173.9619" y1="51.2756" y2="51.2756"/><g data-visibility-modifier="PUBLIC_FIELD"><ellipse cx="18" cy="64.9241" fill="none" rx="3" ry="3" style="stroke:#038048;stroke-width:1;"/></g><text fill="#000000" font-family="sans-serif" font-size="14" lengthAdjust="spacing" textLength="90.6514" x="27" y="68.2707">name: String</text><g data-visibility-modifier="PUBLIC_FIELD"><ellipse cx="18" cy="81.2209" fill="none" rx="3" ry="3" style="stroke:#038048;stroke-width:1;"/></g><text fill="#000000" font-family="sans-serif" font-size="14" lengthAdjust="spacing" textLength="141.9619" x="27" y="84.5676">displayName: String</text><line style="stroke:#181818;stroke-width:0.5;" x1="8" x2="173.9619" y1="91.8694" y2="91.8694"/></g><!--class GitPlatform--><g class="entity" data-qualified-name="GitPlatform" data-source-line="6" id="ent0003"><rect fill="#F1F1F1" height="72.5625" rx="2.5" ry="2.5" style="stroke:#181818;stroke-width:0.5;" width="116.6514" x="329.66" y="180.89"/><ellipse cx="344.8389" cy="201.0228" fill="#ADD1B2" rx="11" ry="11" style="stroke:#181818;stroke-width:1;"/><path d="M347.8076,206.6634 Q347.2295,206.9603 346.5889,207.1009 Q345.9482,207.2572 345.2451,207.2572 Q342.7451,207.2572 341.417,205.6166 Q340.1045,203.9603 340.1045,200.8353 Q340.1045,197.7103 341.417,196.0541 Q342.7451,194.3978 345.2451,194.3978 Q345.9482,194.3978 346.5889,194.5541 Q347.2451,194.7103 347.8076,195.0072 L347.8076,197.7259 Q347.1826,197.1478 346.5889,196.8822 Q345.9951,196.6009 345.3701,196.6009 Q344.0264,196.6009 343.3389,197.6791 Q342.6514,198.7416 342.6514,200.8353 Q342.6514,202.9291 343.3389,204.0072 Q344.0264,205.0697 345.3701,205.0697 Q345.9951,205.0697 346.5889,204.8041 Q347.1826,204.5228 347.8076,203.9447 L347.8076,206.6634 Z " fill="#000000"/><text fill="#000000" font-family="sans-serif" font-size="12" font-style="italic" lengthAdjust="spacing" textLength="88.2539" x="356.8786" y="197.0287">&#171;value object&#187;</text><text fill="#000000" font-family="sans-serif" font-size="14" lengthAdjust="spacing" textLength="79.5156" x="361.2477" y="212.8539">GitPlatform</text><line style="stroke:#181818;stroke-width:0.5;" x1="330.66" x2="445.3114" y1="221.1556" y2="221.1556"/><g data-visibility-modifier="PUBLIC_FIELD"><ellipse cx="340.66" cy="234.8041" fill="none" rx="3" ry="3" style="stroke:#038048;stroke-width:1;"/></g><text fill="#000000" font-family="sans-serif" font-size="14" lengthAdjust="spacing" textLength="90.6514" x="349.66" y="238.1507">name: String</text><line style="stroke:#181818;stroke-width:0.5;" x1="330.66" x2="445.3114" y1="245.4525" y2="245.4525"/></g><!--class User--><g class="entity" data-qualified-name="User" data-source-line="10" id="ent0004"><rect fill="#F1F1F1" height="96.8906" rx="2.5" ry="2.5" style="stroke:#181818;stroke-width:0.5;" width="357.0098" x="209.48" y="7"/><ellipse cx="367.7798" cy="23" fill="#ADD1B2" rx="11" ry="11" style="stroke:#181818;stroke-width:1;"/><path d="M370.7486,28.6406 Q370.1704,28.9375 369.5298,29.0781 Q368.8892,29.2344 368.1861,29.2344 Q365.6861,29.2344 364.3579,27.5938 Q363.0454,25.9375 363.0454,22.8125 Q363.0454,19.6875 364.3579,18.0313 Q365.6861,16.375 368.1861,16.375 Q368.8892,16.375 369.5298,16.5313 Q370.1861,16.6875 370.7486,16.9844 L370.7486,19.7031 Q370.1236,19.125 369.5298,18.8594 Q368.9361,18.5781 368.3111,18.5781 Q366.9673,18.5781 366.2798,19.6563 Q365.5923,20.7188 365.5923,22.8125 Q365.5923,24.9063 366.2798,25.9844 Q366.9673,27.0469 368.3111,27.0469 Q368.9361,27.0469 369.5298,26.7813 Q370.1236,26.5 370.7486,25.9219 L370.7486,28.6406 Z " fill="#000000"/><text fill="#000000" font-family="sans-serif" font-size="14" lengthAdjust="spacing" textLength="31.9102" x="388.2798" y="27.8467">User</text><line style="stroke:#181818;stroke-width:0.5;" x1="210.48" x2="565.4898" y1="39" y2="39"/><g data-visibility-modifier="PUBLIC_FIELD"><ellipse cx="220.48" cy="52.6484" fill="none" rx="3" ry="3" style="stroke:#038048;stroke-width:1;"/></g><text fill="#000000" font-family="sans-serif" font-size="14" lengthAdjust="spacing" textLength="63.7246" x="229.48" y="55.9951">id: String</text><g data-visibility-modifier="PUBLIC_FIELD"><ellipse cx="220.48" cy="68.9453" fill="none" rx="3" ry="3" style="stroke:#038048;stroke-width:1;"/></g><text fill="#000000" font-family="sans-serif" font-size="14" lengthAdjust="spacing" textLength="121.1875" x="229.48" y="72.292">username: String</text><g data-visibility-modifier="PUBLIC_FIELD"><ellipse cx="220.48" cy="85.2422" fill="none" rx="3" ry="3" style="stroke:#038048;stroke-width:1;"/></g><text fill="#000000" font-family="sans-serif" font-size="14" lengthAdjust="spacing" textLength="331.0098" x="229.48" y="88.5889">platformUsernames: Map&lt;GitPlatform, String&gt;</text><line style="stroke:#181818;stroke-width:0.5;" x1="210.48" x2="565.4898" y1="95.8906" y2="95.8906"/></g><!--link User to GitPlatform--><g class="link" data-entity-1="ent0004" data-entity-2="ent0003" data-link-type="dependency" data-source-line="16" id="lnk5"><path codeLine="16" d="M387.98,104.37 C387.98,128.81 387.98,152.03 387.98,174.47" fill="none" id="User-to-GitPlatform" style="stroke:#181818;stroke-width:1;"/><polygon fill="#181818" points="387.98,180.47,391.98,171.47,387.98,175.47,383.98,171.47,387.98,180.47" style="stroke:#181818;stroke-width:1;"/><polygon fill="#000000" points="392.98,147.4564,395.9189,138.4113,390.0411,138.4113,392.98,147.4564" style="stroke:#000000;stroke-width:1;"/><text fill="#000000" font-family="sans-serif" font-size="13" lengthAdjust="spacing" textLength="23.2197" x="401.98" y="146.9569">key</text></g><?plantuml-src Iyv9B2vMS4mkoIpBBAaCgIn8LR2nAKlCAKrLo4_AIaqkiRDJgEPIKD3EIynDjL88BYdAp4i7yLCoYmjo4Ylza8LhkRYImUQvPvO4v2IMfEKNvH9Z75nVQ75g4KG-CmNPibAWEBe32g0MX4BbYgqKV1CBR92ire6gjWDP03PQLzSEnMrM2jcfbGfs0000?></g></svg>