<svg xmlns="http://www.w3.org/2000/svg" xmlns:xlink="http://www.w3.org/1999/xlink" contentStyleType="text/css" data-diagram-type="CLASS" height="432px" preserveAspectRatio="none" style="width:570px;height:432px;background:#FFFFFF;" version="1.1" viewBox="0 0 570 432" width="570px" zoomAndPan="magnify"><?plantuml 1.2026.3?><defs/><g><!--class ActivityData--><g class="entity" data-qualified-name="ActivityData" data-source-line="1" id="ent0002"><rect fill="#F1F1F1" height="96.8906" rx="2.5" ry="2.5" style="stroke:#181818;stroke-width:0.5;" width="172.0225" x="195.35" y="320.78"/><ellipse cx="234.6465" cy="336.78" fill="#ADD1B2" rx="11" ry="11" style="stroke:#181818;stroke-width:1;"/><path d="M237.6152,342.4206 Q237.0371,342.7175 236.3965,342.8581 Q235.7559,343.0144 235.0527,343.0144 Q232.5527,343.0144 231.2246,341.3738 Q229.9121,339.7175 229.9121,336.5925 Q229.9121,333.4675 231.2246,331.8113 Q232.5527,330.155 235.0527,330.155 Q235.7559,330.155 236.3965,330.3113 Q237.0527,330.4675 237.6152,330.7644 L237.6152,333.4831 Q236.9902,332.905 236.3965,332.6394 Q235.8027,332.3581 235.1777,332.3581 Q233.834,332.3581 233.1465,333.4363 Q232.459,334.4988 232.459,336.5925 Q232.459,338.6863 233.1465,339.7644 Q233.834,340.8269 235.1777,340.8269 Q235.8027,340.8269 236.3965,340.5613 Q236.9902,340.28 237.6152,339.7019 L237.6152,342.4206 Z " fill="#000000"/><text fill="#000000" font-family="sans-serif" font-size="14" lengthAdjust="spacing" textLength="86.0303" x="254.0457" y="341.6267">ActivityData</text><line style="stroke:#181818;stroke-width:0.5;" x1="196.35" x2="366.3725" y1="352.78" y2="352.78"/><g data-visibility-modifier="PUBLIC_FIELD"><ellipse cx="206.35" cy="366.4284" fill="none" rx="3" ry="3" style="stroke:#038048;stroke-width:1;"/></g><text fill="#000000" font-family="sans-serif" font-size="14" lengthAdjust="spacing" textLength="78.3193" x="215.35" y="369.7751">title: String</text><g data-visibility-modifier="PUBLIC_FIELD"><ellipse cx="206.35" cy="382.7253" fill="none" rx="3" ry="3" style="stroke:#038048;stroke-width:1;"/></g><text fill="#000000" font-family="sans-serif" font-size="14" lengthAdjust="spacing" textLength="69.4668" x="215.35" y="386.072">url: String</text><g data-visibility-modifier="PUBLIC_FIELD"><ellipse cx="206.35" cy="399.0222" fill="none" rx="3" ry="3" style="stroke:#038048;stroke-width:1;"/></g><text fill="#000000" font-family="sans-serif" font-size="14" lengthAdjust="spacing" textLength="146.0225" x="215.35" y="402.3689">createdAt: DateTime</text><line style="stroke:#181818;stroke-width:0.5;" x1="196.35" x2="366.3725" y1="409.6706" y2="409.6706"/></g><!--class Activity--><g class="entity" data-qualified-name="Activity" data-source-line="7" id="ent0003"><rect fill="#F1F1F1" height="96.8906" rx="2.5" ry="2.5" style="stroke:#181818;stroke-width:0.5;" width="190.3564" x="186.19" y="7"/><ellipse cx="250.817" cy="23" fill="#B4A7E5" rx="11" ry="11" style="stroke:#181818;stroke-width:1;"/><path d="M246.7388,18.7656 L246.7388,16.6094 L254.1295,16.6094 L254.1295,18.7656 L251.6607,18.7656 L251.6607,26.8438 L254.1295,26.8438 L254.1295,29 L246.7388,29 L246.7388,26.8438 L249.2076,26.8438 L249.2076,18.7656 L246.7388,18.7656 Z " fill="#000000"/><text fill="#000000" font-family="sans-serif" font-size="14" font-style="italic" lengthAdjust="spacing" textLength="52.6025" x="271.317" y="27.8467">Activity</text><line style="stroke:#181818;stroke-width:0.5;" x1="187.19" x2="375.5464" y1="39" y2="39"/><line style="stroke:#181818;stroke-width:0.5;" x1="187.19" x2="375.5464" y1="47" y2="47"/><g data-visibility-modifier="PUBLIC_METHOD"><ellipse cx="197.19" cy="60.6484" fill="#84BE84" rx="3" ry="3" style="stroke:#038048;stroke-width:1;"/></g><text fill="#000000" font-family="sans-serif" font-size="14" lengthAdjust="spacing" textLength="162.5381" x="206.19" y="63.9951">getData(): ActivityData</text><g data-visibility-modifier="PUBLIC_METHOD"><ellipse cx="197.19" cy="76.9453" fill="#84BE84" rx="3" ry="3" style="stroke:#038048;stroke-width:1;"/></g><text fill="#000000" font-family="sans-serif" font-size="14" lengthAdjust="spacing" textLength="164.3564" x="206.19" y="80.292">getType(): ActivityType</text><g data-visibility-modifier="PUBLIC_METHOD"><ellipse cx="197.19" cy="93.2422" fill="#84BE84" rx="3" ry="3" style="stroke:#038048;stroke-width:1;"/></g><text fill="#000000" font-family="sans-serif" font-size="14" lengthAdjust="spacing" textLength="152.5166" x="206.19" y="96.5889">getSummary(): String</text></g><!--class Commit--><g class="entity" data-qualified-name="Commit" data-source-line="13" id="ent0004"><rect fill="#F1F1F1" height="96.8906" rx="2.5" ry="2.5" style="stroke:#181818;stroke-width:0.5;" width="152.7314" x="7" y="163.89"/><ellipse cx="51.6182" cy="179.89" fill="#ADD1B2" rx="11" ry="11" style="stroke:#181818;stroke-width:1;"/><path d="M54.5869,185.5306 Q54.0088,185.8275 53.3682,185.9681 Q52.7275,186.1244 52.0244,186.1244 Q49.5244,186.1244 48.1963,184.4838 Q46.8838,182.8275 46.8838,179.7025 Q46.8838,176.5775 48.1963,174.9213 Q49.5244,173.265 52.0244,173.265 Q52.7275,173.265 53.3682,173.4213 Q54.0244,173.5775 54.5869,173.8744 L54.5869,176.5931 Q53.9619,176.015 53.3682,175.7494 Q52.7744,175.4681 52.1494,175.4681 Q50.8057,175.4681 50.1182,176.5463 Q49.4307,177.6088 49.4307,179.7025 Q49.4307,181.7963 50.1182,182.8744 Q50.8057,183.9369 52.1494,183.9369 Q52.7744,183.9369 53.3682,183.6713 Q53.9619,183.39 54.5869,182.8119 L54.5869,185.5306 Z " fill="#000000"/><text fill="#000000" font-family="sans-serif" font-size="14" lengthAdjust="spacing" textLength="54.9951" x="72.1182" y="184.7367">Commit</text><line style="stroke:#181818;stroke-width:0.5;" x1="8" x2="158.7314" y1="195.89" y2="195.89"/><g data-visibility-modifier="PRIVATE_FIELD"><rect fill="none" height="6" style="stroke:#C82930;stroke-width:1;" width="6" x="15" y="206.5384"/></g><text fill="#000000" font-family="sans-serif" font-size="14" lengthAdjust="spacing" textLength="126.7314" x="27" y="212.8851">data: ActivityData</text><g data-visibility-modifier="PUBLIC_FIELD"><ellipse cx="18" cy="225.8353" fill="none" rx="3" ry="3" style="stroke:#038048;stroke-width:1;"/></g><text fill="#000000" font-family="sans-serif" font-size="14" lengthAdjust="spacing" textLength="75.6943" x="27" y="229.182">sha: String</text><g data-visibility-modifier="PUBLIC_FIELD"><ellipse cx="18" cy="242.1322" fill="none" rx="3" ry="3" style="stroke:#038048;stroke-width:1;"/></g><text fill="#000000" font-family="sans-serif" font-size="14" lengthAdjust="spacing" textLength="113.8662" x="27" y="245.4789">message: String</text><line style="stroke:#181818;stroke-width:0.5;" x1="8" x2="158.7314" y1="252.7806" y2="252.7806"/></g><!--class MergedPullRequest--><g class="entity" data-qualified-name="MergedPullRequest" data-source-line="19" id="ent0006"><rect fill="#F1F1F1" height="80.5938" rx="2.5" ry="2.5" style="stroke:#181818;stroke-width:0.5;" width="172.7813" x="194.98" y="172.04"/><ellipse cx="212.3895" cy="188.04" fill="#ADD1B2" rx="11" ry="11" style="stroke:#181818;stroke-width:1;"/><path d="M215.3583,193.6806 Q214.7801,193.9775 214.1395,194.1181 Q213.4989,194.2744 212.7958,194.2744 Q210.2958,194.2744 208.9676,192.6338 Q207.6551,190.9775 207.6551,187.8525 Q207.6551,184.7275 208.9676,183.0713 Q210.2958,181.415 212.7958,181.415 Q213.4989,181.415 214.1395,181.5713 Q214.7958,181.7275 215.3583,182.0244 L215.3583,184.7431 Q214.7333,184.165 214.1395,183.8994 Q213.5458,183.6181 212.9208,183.6181 Q211.577,183.6181 210.8895,184.6963 Q210.202,185.7588 210.202,187.8525 Q210.202,189.9463 210.8895,191.0244 Q211.577,192.0869 212.9208,192.0869 Q213.5458,192.0869 214.1395,191.8213 Q214.7333,191.54 215.3583,190.9619 L215.3583,193.6806 Z " fill="#000000"/><text fill="#000000" font-family="sans-serif" font-size="14" lengthAdjust="spacing" textLength="135.4268" x="226.925" y="192.8867">MergedPullRequest</text><line style="stroke:#181818;stroke-width:0.5;" x1="195.98" x2="366.7613" y1="204.04" y2="204.04"/><g data-visibility-modifier="PRIVATE_FIELD"><rect fill="none" height="6" style="stroke:#C82930;stroke-width:1;" width="6" x="202.98" y="214.6884"/></g><text fill="#000000" font-family="sans-serif" font-size="14" lengthAdjust="spacing" textLength="126.7314" x="214.98" y="221.0351">data: ActivityData</text><g data-visibility-modifier="PUBLIC_FIELD"><ellipse cx="205.98" cy="233.9853" fill="none" rx="3" ry="3" style="stroke:#038048;stroke-width:1;"/></g><text fill="#000000" font-family="sans-serif" font-size="14" lengthAdjust="spacing" textLength="146.7813" x="214.98" y="237.332">mergedAt: DateTime</text><line style="stroke:#181818;stroke-width:0.5;" x1="195.98" x2="366.7613" y1="244.6338" y2="244.6338"/></g><!--class Issue--><g class="entity" data-qualified-name="Issue" data-source-line="24" id="ent0008"><rect fill="#F1F1F1" height="80.5938" rx="2.5" ry="2.5" style="stroke:#181818;stroke-width:0.5;" width="152.7314" x="403" y="172.04"/><ellipse cx="457.0142" cy="188.04" fill="#ADD1B2" rx="11" ry="11" style="stroke:#181818;stroke-width:1;"/><path d="M459.9829,193.6806 Q459.4048,193.9775 458.7642,194.1181 Q458.1235,194.2744 457.4204,194.2744 Q454.9204,194.2744 453.5923,192.6338 Q452.2798,190.9775 452.2798,187.8525 Q452.2798,184.7275 453.5923,183.0713 Q454.9204,181.415 457.4204,181.415 Q458.1235,181.415 458.7642,181.5713 Q459.4204,181.7275 459.9829,182.0244 L459.9829,184.7431 Q459.3579,184.165 458.7642,183.8994 Q458.1704,183.6181 457.5454,183.6181 Q456.2017,183.6181 455.5142,184.6963 Q454.8267,185.7588 454.8267,187.8525 Q454.8267,189.9463 455.5142,191.0244 Q456.2017,192.0869 457.5454,192.0869 Q458.1704,192.0869 458.7642,191.8213 Q459.3579,191.54 459.9829,190.9619 L459.9829,193.6806 Z " fill="#000000"/><text fill="#000000" font-family="sans-serif" font-size="14" lengthAdjust="spacing" textLength="36.2031" x="477.5142" y="192.8867">Issue</text><line style="stroke:#181818;stroke-width:0.5;" x1="404" x2="554.7314" y1="204.04" y2="204.04"/><g data-visibility-modifier="PRIVATE_FIELD"><rect fill="none" height="6" style="stroke:#C82930;stroke-width:1;" width="6" x="411" y="214.6884"/></g><text fill="#000000" font-family="sans-serif" font-size="14" lengthAdjust="spacing" textLength="126.7314" x="423" y="221.0351">data: ActivityData</text><g data-visibility-modifier="PUBLIC_FIELD"><ellipse cx="414" cy="233.9853" fill="none" rx="3" ry="3" style="stroke:#038048;stroke-width:1;"/></g><text fill="#000000" font-family="sans-serif" font-size="14" lengthAdjust="spacing" textLength="117.8926" x="423" y="237.332">state: IssueState</text><line style="stroke:#181818;stroke-width:0.5;" x1="404" x2="554.7314" y1="244.6338" y2="244.6338"/></g><!--reverse link Activity to Commit--><g class="link" data-entity-1="ent0003" data-entity-2="ent0004" data-link-type="extension" data-source-line="14" id="lnk5"><path d="M206.1612,115.2688 C182.0712,134.1088 168.63,144.63 144.53,163.49" fill="none" id="Activity-backto-Commit" style="stroke:#181818;stroke-width:1;stroke-dasharray:7,7;"/><polygon fill="none" points="220.34,104.18,202.4649,110.5425,209.8574,119.9951,220.34,104.18" style="stroke:#181818;stroke-width:1;"/></g><!--reverse link Activity to MergedPullRequest--><g class="link" data-entity-1="ent0003" data-entity-2="ent0006" data-link-type="extension" data-source-line="20" id="lnk7"><path d="M281.37,122.18 C281.37,143.78 281.37,151.01 281.37,171.57" fill="none" id="Activity-backto-MergedPullRequest" style="stroke:#181818;stroke-width:1;stroke-dasharray:7,7;"/><polygon fill="none" points="281.37,104.18,275.37,122.18,287.37,122.18,281.37,104.18" style="stroke:#181818;stroke-width:1;"/></g><!--reverse link Activity to Issue--><g class="link" data-entity-1="ent0003" data-entity-2="ent0008" data-link-type="extension" data-source-line="25" id="lnk9"><path d="M356.567,115.2711 C384.177,136.8711 402.26,151.01 428.53,171.57" fill="none" id="Activity-backto-Issue" style="stroke:#181818;stroke-width:1;stroke-dasharray:7,7;"/><polygon fill="none" points="342.39,104.18,352.87,119.9967,360.2641,110.5454,342.39,104.18" style="stroke:#181818;stroke-width:1;"/></g><!--reverse link Commit to ActivityData--><g class="link" data-entity-1="ent0004" data-entity-2="ent0002" data-link-type="composition" data-source-line="29" id="lnk10"><path codeLine="29" d="M153.8425,268.4625 C177.9325,287.3025 196.1,301.52 220.2,320.38" fill="none" id="Commit-backto-ActivityData" style="stroke:#181818;stroke-width:1;"/><polygon fill="#181818" points="144.39,261.07,146.6521,267.9171,153.8425,268.4625,151.5804,261.6154,144.39,261.07" style="stroke:#181818;stroke-width:1;"/></g><!--reverse link MergedPullRequest to ActivityData--><g class="link" data-entity-1="ent0006" data-entity-2="ent0002" data-link-type="composition" data-source-line="30" id="lnk11"><path codeLine="30" d="M281.37,264.82 C281.37,285.44 281.37,298.82 281.37,320.52" fill="none" id="MergedPullRequest-backto-ActivityData" style="stroke:#181818;stroke-width:1;"/><polygon fill="#181818" points="281.37,252.82,277.37,258.82,281.37,264.82,285.37,258.82,281.37,252.82" style="stroke:#181818;stroke-width:1;"/></g><!--reverse link Issue to ActivityData--><g class="link" data-entity-1="ent0008" data-entity-2="ent0002" data-link-type="composition" data-source-line="31" id="lnk12"><path codeLine="31" d="M419.179,260.4144 C392.939,280.9444 370.17,298.76 342.56,320.36" fill="none" id="Issue-backto-ActivityData" style="stroke:#181818;stroke-width:1;"/><polygon fill="#181818" points="428.63,253.02,421.4397,253.5669,419.179,260.4144,426.3693,259.8676,428.63,253.02" style="stroke:#181818;stroke-width:1;"/></g><?plantuml-src bP1B3i8m34JtFKMMVDGBT8TWmm89qLuWIeSIAIuGEqWLukuqj4BzhBgBFVQRYOtJp6fdnBwiD0SjMhqJfRPYnI5JkNXRLx4Hl1kMnaCBofragbr2OGd99qbiBV1NRV17ThWA4jchTJRowgMYUM0enRgNya2aVHFLthnrCR_G-pkH5MNfuK2eXSUUQTaQpEtufeV_833h2dFw2Rv2UGxENV0CuCL6z0DC3zJ1Zym1YvDBoycwtJo-8wy_mYPDn_Fp-BEHBiIq_GK0?></g></svg>